<svg width="300" height="185" viewBox="0 0 300 185" fill="none" xmlns="http://www.w3.org/2000/svg">
<path d="M61.4385 36.5106C99.0489 -1.09989 159.951 -1.09989 197.561 36.5106L202.098 41.0479C203.912 42.8617 203.912 45.7769 202.098 47.5906L186.639 63.0499C185.732 63.9568 184.268 63.9568 183.361 63.0499L177.038 56.7269C151.286 30.9752 108.714 30.9752 82.9619 56.7269L76.2052 63.4836C75.2983 64.3905 73.8343 64.3905 72.9274 63.4836L57.4681 48.0243C55.6543 46.2105 55.6543 43.2953 57.4681 41.4816L61.4385 36.5106ZM228.678 69.2726L242.094 82.6882C243.908 84.5019 243.908 87.4171 242.094 89.2309L176.889 154.436C175.075 156.249 172.16 156.249 170.346 154.436L129.5 113.59C129.046 113.136 128.374 113.136 127.92 113.59L87.0744 154.436C85.2607 156.249 82.3455 156.249 80.5318 154.436L15.3065 89.2109C13.4927 87.3972 13.4927 84.482 15.3065 82.6682L28.7221 69.2526C30.5359 67.4389 33.4511 67.4389 35.2648 69.2526L76.1105 110.099C76.5645 110.553 77.2365 110.553 77.6905 110.099L118.536 69.2526C120.35 67.4389 123.265 67.4389 125.079 69.2526L165.924 110.099C166.378 110.553 167.05 110.553 167.504 110.099L208.35 69.2526C210.164 67.4389 213.079 67.4389 214.893 69.2526L228.678 69.2726Z" fill="#3B99FC"/>
</svg>